<svg width="219" height="41" viewBox="0 0 219 41" fill="none" xmlns="http://www.w3.org/2000/svg">
<g clip-path="url(#clip0_52730_23915)">
<rect y="0.679932" width="219" height="40" rx="20" fill="#3E8CFA"/>
<g clip-path="url(#clip1_52730_23915)">
<path fill-rule="evenodd" clip-rule="evenodd" d="M17.2653 12.9452C16 14.2105 16 16.247 16 20.3199V21.0399C16 25.1129 16 27.1493 17.2653 28.4146C18.5306 29.6799 20.5671 29.6799 24.64 29.6799H25.36C29.4329 29.6799 31.4694 29.6799 32.7347 28.4146C34 27.1493 34 25.1129 34 21.0399V20.3199C34 16.247 34 14.2105 32.7347 12.9452C31.4694 11.6799 29.4329 11.6799 25.36 11.6799H24.64C20.5671 11.6799 18.5306 11.6799 17.2653 12.9452ZM19.0375 17.155C19.135 21.835 21.475 24.6475 25.5775 24.6475H25.8101V21.97C27.3176 22.12 28.4575 23.2225 28.915 24.6475H31.045C30.46 22.5175 28.9225 21.34 27.9625 20.89C28.9225 20.335 30.2725 18.985 30.595 17.155H28.6599C28.2399 18.64 26.9951 19.99 25.8101 20.1175V17.155H23.875V22.345C22.675 22.045 21.16 20.59 21.0925 17.155H19.0375Z" fill="white"/>
</g>
<path d="M46.8252 21.1819H44.2891L44.2754 19.9309H46.4902C46.8639 19.9309 47.1807 19.8762 47.4404 19.7668C47.7048 19.6529 47.9053 19.4911 48.042 19.2815C48.1787 19.0673 48.2471 18.8098 48.2471 18.509C48.2471 18.1764 48.1833 17.9052 48.0557 17.6956C47.9281 17.4859 47.7321 17.3333 47.4678 17.2375C47.208 17.1418 46.8753 17.094 46.4697 17.094H44.8086V25.6799H43.0928V15.7268H46.4697C47.0166 15.7268 47.5042 15.7792 47.9326 15.884C48.3656 15.9889 48.7324 16.1529 49.0332 16.3762C49.3385 16.595 49.5687 16.873 49.7236 17.2102C49.8831 17.5474 49.9629 17.9485 49.9629 18.4133C49.9629 18.8235 49.8649 19.1995 49.6689 19.5413C49.473 19.8785 49.1836 20.1542 48.8008 20.3684C48.418 20.5826 47.9417 20.7102 47.3721 20.7512L46.8252 21.1819ZM46.75 25.6799H43.749L44.5215 24.3196H46.75C47.1374 24.3196 47.4609 24.2558 47.7207 24.1282C47.9805 23.996 48.1742 23.816 48.3018 23.5881C48.4339 23.3557 48.5 23.0846 48.5 22.7747C48.5 22.4511 48.443 22.1708 48.3291 21.9338C48.2152 21.6923 48.0352 21.5077 47.7891 21.3801C47.543 21.248 47.2217 21.1819 46.8252 21.1819H44.8975L44.9111 19.9309H47.4199L47.8096 20.4026C48.3564 20.4208 48.8053 20.5416 49.1562 20.7649C49.5117 20.9882 49.776 21.2776 49.9492 21.6331C50.1224 21.9885 50.209 22.3713 50.209 22.7815C50.209 23.415 50.07 23.9459 49.792 24.3743C49.5186 24.8027 49.1243 25.1285 48.6094 25.3518C48.0944 25.5706 47.4746 25.6799 46.75 25.6799ZM51.46 22.0637V21.9065C51.46 21.3733 51.5374 20.8788 51.6924 20.4231C51.8473 19.9628 52.0706 19.564 52.3623 19.2268C52.6585 18.885 53.0186 18.6207 53.4424 18.4338C53.8708 18.2424 54.3538 18.1467 54.8916 18.1467C55.4339 18.1467 55.917 18.2424 56.3408 18.4338C56.7692 18.6207 57.1315 18.885 57.4277 19.2268C57.724 19.564 57.9495 19.9628 58.1045 20.4231C58.2594 20.8788 58.3369 21.3733 58.3369 21.9065V22.0637C58.3369 22.5969 58.2594 23.0914 58.1045 23.5471C57.9495 24.0028 57.724 24.4016 57.4277 24.7434C57.1315 25.0806 56.7715 25.345 56.3477 25.5364C55.9238 25.7232 55.443 25.8167 54.9053 25.8167C54.363 25.8167 53.8776 25.7232 53.4492 25.5364C53.0254 25.345 52.6654 25.0806 52.3691 24.7434C52.0729 24.4016 51.8473 24.0028 51.6924 23.5471C51.5374 23.0914 51.46 22.5969 51.46 22.0637ZM53.1074 21.9065V22.0637C53.1074 22.3964 53.1416 22.7109 53.21 23.0071C53.2783 23.3033 53.3854 23.5631 53.5312 23.7864C53.6771 24.0097 53.8639 24.1851 54.0918 24.3127C54.3197 24.4403 54.5908 24.5042 54.9053 24.5042C55.2106 24.5042 55.4749 24.4403 55.6982 24.3127C55.9261 24.1851 56.113 24.0097 56.2588 23.7864C56.4046 23.5631 56.5117 23.3033 56.5801 23.0071C56.653 22.7109 56.6895 22.3964 56.6895 22.0637V21.9065C56.6895 21.5784 56.653 21.2685 56.5801 20.9768C56.5117 20.6806 56.4023 20.4185 56.252 20.1907C56.1061 19.9628 55.9193 19.7851 55.6914 19.6575C55.4681 19.5253 55.2015 19.4592 54.8916 19.4592C54.5817 19.4592 54.3128 19.5253 54.085 19.6575C53.8617 19.7851 53.6771 19.9628 53.5312 20.1907C53.3854 20.4185 53.2783 20.6806 53.21 20.9768C53.1416 21.2685 53.1074 21.5784 53.1074 21.9065ZM61.4199 23.2737L64.3252 18.2834H65.9727V25.6799H64.3252V20.6829L61.4199 25.6799H59.7725V18.2834H61.4199V23.2737ZM63.8877 15.4397H65.1113C65.1113 15.818 65.0202 16.1529 64.8379 16.4446C64.6602 16.7317 64.4049 16.9573 64.0723 17.1213C63.7441 17.2854 63.3522 17.3674 62.8965 17.3674C62.2083 17.3674 61.6637 17.1897 61.2627 16.8342C60.8662 16.4742 60.668 16.0094 60.668 15.4397H61.8916C61.8916 15.6949 61.9668 15.9205 62.1172 16.1165C62.2721 16.3079 62.5319 16.4036 62.8965 16.4036C63.2565 16.4036 63.5117 16.3079 63.6621 16.1165C63.8125 15.9205 63.8877 15.6949 63.8877 15.4397ZM71.1475 18.2834V25.6799H69.4932V18.2834H71.1475ZM73.5742 18.2834V19.5823H67.1074V18.2834H73.5742ZM76.377 23.2737L79.2822 18.2834H80.9297V25.6799H79.2822V20.6829L76.377 25.6799H74.7295V18.2834H76.377V23.2737ZM92.0996 18.2834V25.6799H90.4521V18.2834H92.0996ZM91.4023 21.5579V22.8635C91.2018 22.9501 90.9762 23.0299 90.7256 23.1028C90.4795 23.1711 90.2197 23.2281 89.9463 23.2737C89.6729 23.3147 89.3971 23.3352 89.1191 23.3352C88.4674 23.3352 87.9046 23.2349 87.4307 23.0344C86.9613 22.8339 86.599 22.5263 86.3438 22.1116C86.0931 21.6923 85.9678 21.1614 85.9678 20.5188V18.2766H87.6084V20.5188C87.6084 20.8879 87.6631 21.1819 87.7725 21.4006C87.8864 21.6194 88.055 21.7766 88.2783 21.8723C88.5016 21.968 88.7819 22.0159 89.1191 22.0159C89.4017 22.0159 89.6683 21.9976 89.9189 21.9612C90.1696 21.9202 90.418 21.8655 90.6641 21.7971C90.9102 21.7288 91.1562 21.649 91.4023 21.5579ZM97.1172 25.8167C96.5703 25.8167 96.0758 25.7278 95.6338 25.55C95.1963 25.3678 94.8226 25.1148 94.5127 24.7913C94.2074 24.4677 93.9727 24.0872 93.8086 23.6497C93.6445 23.2122 93.5625 22.7405 93.5625 22.2346V21.9612C93.5625 21.3824 93.6468 20.8583 93.8154 20.3889C93.984 19.9195 94.2188 19.5185 94.5195 19.1858C94.8203 18.8486 95.1758 18.5911 95.5859 18.4133C95.9961 18.2356 96.4404 18.1467 96.9189 18.1467C97.4476 18.1467 97.9102 18.2356 98.3066 18.4133C98.7031 18.5911 99.0312 18.8417 99.291 19.1653C99.5553 19.4843 99.7513 19.8648 99.8789 20.3069C100.011 20.7489 100.077 21.2366 100.077 21.7698V22.4739H94.3623V21.2913H98.4502V21.1614C98.4411 20.8652 98.3818 20.5872 98.2725 20.3274C98.1676 20.0676 98.0059 19.858 97.7871 19.6985C97.5684 19.539 97.2767 19.4592 96.9121 19.4592C96.6387 19.4592 96.3949 19.5185 96.1807 19.637C95.971 19.7509 95.7956 19.9172 95.6543 20.136C95.513 20.3547 95.4036 20.6191 95.3262 20.929C95.2533 21.2343 95.2168 21.5784 95.2168 21.9612V22.2346C95.2168 22.5582 95.2601 22.859 95.3467 23.137C95.4378 23.4104 95.57 23.6497 95.7432 23.8547C95.9163 24.0598 96.126 24.2216 96.3721 24.3401C96.6182 24.454 96.8984 24.511 97.2129 24.511C97.6094 24.511 97.9626 24.4312 98.2725 24.2717C98.5824 24.1122 98.8512 23.8866 99.0791 23.595L99.9473 24.4358C99.7878 24.6682 99.5804 24.8915 99.3252 25.1057C99.07 25.3153 98.7578 25.4862 98.3887 25.6184C98.0241 25.7506 97.6003 25.8167 97.1172 25.8167ZM103.017 19.7053V28.5237H101.369V18.2834H102.887L103.017 19.7053ZM107.836 21.9133V22.0569C107.836 22.5946 107.772 23.0937 107.645 23.554C107.521 24.0097 107.337 24.4084 107.091 24.7502C106.849 25.0875 106.551 25.3495 106.195 25.5364C105.84 25.7232 105.43 25.8167 104.965 25.8167C104.505 25.8167 104.101 25.7323 103.755 25.5637C103.413 25.3905 103.124 25.1467 102.887 24.8323C102.65 24.5178 102.458 24.1487 102.312 23.7249C102.171 23.2965 102.071 22.8271 102.012 22.3167V21.7629C102.071 21.2206 102.171 20.7284 102.312 20.2864C102.458 19.8443 102.65 19.4638 102.887 19.1448C103.124 18.8258 103.413 18.5797 103.755 18.4065C104.097 18.2333 104.495 18.1467 104.951 18.1467C105.416 18.1467 105.828 18.2379 106.188 18.4202C106.549 18.5979 106.852 18.8531 107.098 19.1858C107.344 19.5139 107.528 19.9104 107.651 20.3752C107.774 20.8355 107.836 21.3482 107.836 21.9133ZM106.188 22.0569V21.9133C106.188 21.5715 106.157 21.2548 106.093 20.9631C106.029 20.6669 105.929 20.4071 105.792 20.1838C105.655 19.9605 105.48 19.7874 105.266 19.6643C105.056 19.5367 104.803 19.4729 104.507 19.4729C104.215 19.4729 103.965 19.523 103.755 19.6233C103.545 19.719 103.37 19.8534 103.229 20.0266C103.087 20.1998 102.978 20.4026 102.9 20.635C102.823 20.8629 102.768 21.1112 102.736 21.3801V22.7063C102.791 23.0344 102.884 23.3352 103.017 23.6086C103.149 23.8821 103.336 24.1008 103.577 24.2649C103.823 24.4244 104.138 24.5042 104.521 24.5042C104.817 24.5042 105.07 24.4403 105.279 24.3127C105.489 24.1851 105.66 24.0097 105.792 23.7864C105.929 23.5585 106.029 23.2965 106.093 23.0002C106.157 22.704 106.188 22.3896 106.188 22.0569ZM112.498 25.8167C111.951 25.8167 111.457 25.7278 111.015 25.55C110.577 25.3678 110.203 25.1148 109.894 24.7913C109.588 24.4677 109.354 24.0872 109.189 23.6497C109.025 23.2122 108.943 22.7405 108.943 22.2346V21.9612C108.943 21.3824 109.028 20.8583 109.196 20.3889C109.365 19.9195 109.6 19.5185 109.9 19.1858C110.201 18.8486 110.557 18.5911 110.967 18.4133C111.377 18.2356 111.821 18.1467 112.3 18.1467C112.828 18.1467 113.291 18.2356 113.688 18.4133C114.084 18.5911 114.412 18.8417 114.672 19.1653C114.936 19.4843 115.132 19.8648 115.26 20.3069C115.392 20.7489 115.458 21.2366 115.458 21.7698V22.4739H109.743V21.2913H113.831V21.1614C113.822 20.8652 113.763 20.5872 113.653 20.3274C113.549 20.0676 113.387 19.858 113.168 19.6985C112.949 19.539 112.658 19.4592 112.293 19.4592C112.02 19.4592 111.776 19.5185 111.562 19.637C111.352 19.7509 111.176 19.9172 111.035 20.136C110.894 20.3547 110.785 20.6191 110.707 20.929C110.634 21.2343 110.598 21.5784 110.598 21.9612V22.2346C110.598 22.5582 110.641 22.859 110.728 23.137C110.819 23.4104 110.951 23.6497 111.124 23.8547C111.297 24.0598 111.507 24.2216 111.753 24.3401C111.999 24.454 112.279 24.511 112.594 24.511C112.99 24.511 113.343 24.4312 113.653 24.2717C113.963 24.1122 114.232 23.8866 114.46 23.595L115.328 24.4358C115.169 24.6682 114.961 24.8915 114.706 25.1057C114.451 25.3153 114.139 25.4862 113.77 25.6184C113.405 25.7506 112.981 25.8167 112.498 25.8167ZM119.806 22.1458H118.384V21.3118H119.532C119.824 21.3118 120.056 21.273 120.229 21.1956C120.407 21.1181 120.533 21.011 120.605 20.8743C120.683 20.733 120.722 20.5689 120.722 20.3821C120.722 20.218 120.683 20.0631 120.605 19.9172C120.533 19.7668 120.407 19.6438 120.229 19.5481C120.052 19.4524 119.81 19.4045 119.505 19.4045C119.254 19.4045 119.029 19.4456 118.828 19.5276C118.632 19.6096 118.477 19.7236 118.363 19.8694C118.249 20.0152 118.192 20.1838 118.192 20.3752H116.545C116.545 19.915 116.675 19.5185 116.935 19.1858C117.199 18.8531 117.552 18.5979 117.994 18.4202C118.436 18.2424 118.922 18.1536 119.45 18.1536C119.901 18.1536 120.307 18.2014 120.667 18.2971C121.027 18.3883 121.332 18.525 121.583 18.7073C121.838 18.885 122.032 19.1083 122.164 19.3772C122.301 19.6415 122.369 19.9491 122.369 20.3C122.369 20.5507 122.31 20.7877 122.191 21.011C122.073 21.2343 121.902 21.4325 121.679 21.6057C121.455 21.7743 121.184 21.9065 120.865 22.0022C120.551 22.0979 120.198 22.1458 119.806 22.1458ZM118.384 21.6672H119.806C120.243 21.6672 120.631 21.7105 120.968 21.7971C121.305 21.8792 121.588 22.0022 121.815 22.1663C122.043 22.3303 122.214 22.5331 122.328 22.7747C122.447 23.0116 122.506 23.2851 122.506 23.595C122.506 23.9413 122.431 24.2535 122.28 24.5315C122.134 24.8049 121.925 25.0374 121.651 25.2288C121.382 25.4202 121.061 25.566 120.688 25.6663C120.314 25.7665 119.901 25.8167 119.45 25.8167C118.958 25.8167 118.479 25.7346 118.015 25.5706C117.554 25.4065 117.174 25.1536 116.873 24.8118C116.577 24.4654 116.429 24.0256 116.429 23.4924H118.076C118.076 23.6793 118.133 23.8547 118.247 24.0188C118.361 24.1829 118.525 24.3173 118.739 24.4221C118.953 24.5224 119.211 24.5725 119.512 24.5725C119.822 24.5725 120.075 24.5247 120.271 24.429C120.466 24.3287 120.612 24.1988 120.708 24.0393C120.804 23.8752 120.852 23.7021 120.852 23.5198C120.852 23.2737 120.804 23.0754 120.708 22.925C120.612 22.7747 120.466 22.6653 120.271 22.5969C120.075 22.524 119.828 22.4875 119.532 22.4875H118.384V21.6672ZM131.29 21.1819H128.754L128.74 19.9309H130.955C131.329 19.9309 131.646 19.8762 131.905 19.7668C132.17 19.6529 132.37 19.4911 132.507 19.2815C132.644 19.0673 132.712 18.8098 132.712 18.509C132.712 18.1764 132.648 17.9052 132.521 17.6956C132.393 17.4859 132.197 17.3333 131.933 17.2375C131.673 17.1418 131.34 17.094 130.935 17.094H129.273V25.6799H127.558V15.7268H130.935C131.481 15.7268 131.969 15.7792 132.397 15.884C132.83 15.9889 133.197 16.1529 133.498 16.3762C133.803 16.595 134.034 16.873 134.188 17.2102C134.348 17.5474 134.428 17.9485 134.428 18.4133C134.428 18.8235 134.33 19.1995 134.134 19.5413C133.938 19.8785 133.648 20.1542 133.266 20.3684C132.883 20.5826 132.407 20.7102 131.837 20.7512L131.29 21.1819ZM131.215 25.6799H128.214L128.986 24.3196H131.215C131.602 24.3196 131.926 24.2558 132.186 24.1282C132.445 23.996 132.639 23.816 132.767 23.5881C132.899 23.3557 132.965 23.0846 132.965 22.7747C132.965 22.4511 132.908 22.1708 132.794 21.9338C132.68 21.6923 132.5 21.5077 132.254 21.3801C132.008 21.248 131.687 21.1819 131.29 21.1819H129.362L129.376 19.9309H131.885L132.274 20.4026C132.821 20.4208 133.27 20.5416 133.621 20.7649C133.977 20.9882 134.241 21.2776 134.414 21.6331C134.587 21.9885 134.674 22.3713 134.674 22.7815C134.674 23.415 134.535 23.9459 134.257 24.3743C133.983 24.8027 133.589 25.1285 133.074 25.3518C132.559 25.5706 131.939 25.6799 131.215 25.6799ZM138.017 18.2834V25.6799H136.369V18.2834H138.017ZM142.843 18.2834L139.514 22.7336H137.634L137.415 21.2434H138.789L140.785 18.2834H142.843ZM140.915 25.6799L138.687 22.4534L139.985 21.5168L143.082 25.6799H140.915ZM143.417 22.0637V21.9065C143.417 21.3733 143.494 20.8788 143.649 20.4231C143.804 19.9628 144.028 19.564 144.319 19.2268C144.616 18.885 144.976 18.6207 145.399 18.4338C145.828 18.2424 146.311 18.1467 146.849 18.1467C147.391 18.1467 147.874 18.2424 148.298 18.4338C148.726 18.6207 149.089 18.885 149.385 19.2268C149.681 19.564 149.907 19.9628 150.062 20.4231C150.216 20.8788 150.294 21.3733 150.294 21.9065V22.0637C150.294 22.5969 150.216 23.0914 150.062 23.5471C149.907 24.0028 149.681 24.4016 149.385 24.7434C149.089 25.0806 148.729 25.345 148.305 25.5364C147.881 25.7232 147.4 25.8167 146.862 25.8167C146.32 25.8167 145.835 25.7232 145.406 25.5364C144.982 25.345 144.622 25.0806 144.326 24.7434C144.03 24.4016 143.804 24.0028 143.649 23.5471C143.494 23.0914 143.417 22.5969 143.417 22.0637ZM145.064 21.9065V22.0637C145.064 22.3964 145.099 22.7109 145.167 23.0071C145.235 23.3033 145.342 23.5631 145.488 23.7864C145.634 24.0097 145.821 24.1851 146.049 24.3127C146.277 24.4403 146.548 24.5042 146.862 24.5042C147.168 24.5042 147.432 24.4403 147.655 24.3127C147.883 24.1851 148.07 24.0097 148.216 23.7864C148.362 23.5631 148.469 23.3033 148.537 23.0071C148.61 22.7109 148.646 22.3964 148.646 22.0637V21.9065C148.646 21.5784 148.61 21.2685 148.537 20.9768C148.469 20.6806 148.359 20.4185 148.209 20.1907C148.063 19.9628 147.876 19.7851 147.648 19.6575C147.425 19.5253 147.159 19.4592 146.849 19.4592C146.539 19.4592 146.27 19.5253 146.042 19.6575C145.819 19.7851 145.634 19.9628 145.488 20.1907C145.342 20.4185 145.235 20.6806 145.167 20.9768C145.099 21.2685 145.064 21.5784 145.064 21.9065ZM156.727 21.3733V22.6721H152.898V21.3733H156.727ZM153.377 18.2834V25.6799H151.729V18.2834H153.377ZM157.916 18.2834V25.6799H156.269V18.2834H157.916ZM163.104 18.2834V25.6799H161.45V18.2834H163.104ZM165.531 18.2834V19.5823H159.064V18.2834H165.531ZM170.692 24.1965V20.6692C170.692 20.4049 170.645 20.177 170.549 19.9856C170.453 19.7942 170.307 19.6461 170.111 19.5413C169.92 19.4364 169.678 19.384 169.387 19.384C169.118 19.384 168.885 19.4296 168.689 19.5208C168.493 19.6119 168.341 19.7349 168.231 19.8899C168.122 20.0448 168.067 20.2203 168.067 20.4163H166.427C166.427 20.1246 166.497 19.842 166.639 19.5686C166.78 19.2952 166.985 19.0514 167.254 18.8372C167.523 18.623 167.844 18.4543 168.218 18.3313C168.591 18.2083 169.011 18.1467 169.476 18.1467C170.032 18.1467 170.524 18.2402 170.952 18.427C171.385 18.6139 171.725 18.8964 171.971 19.2747C172.221 19.6484 172.347 20.1178 172.347 20.6829V23.9709C172.347 24.3082 172.369 24.6112 172.415 24.8801C172.465 25.1444 172.536 25.3746 172.627 25.5706V25.6799H170.938C170.861 25.5022 170.799 25.2766 170.754 25.0032C170.713 24.7252 170.692 24.4563 170.692 24.1965ZM170.932 21.1819L170.945 22.2004H169.763C169.457 22.2004 169.188 22.2301 168.956 22.2893C168.724 22.344 168.53 22.426 168.375 22.5354C168.22 22.6448 168.104 22.7769 168.026 22.9319C167.949 23.0868 167.91 23.2623 167.91 23.4583C167.91 23.6542 167.956 23.8342 168.047 23.9983C168.138 24.1578 168.27 24.2831 168.443 24.3743C168.621 24.4654 168.835 24.511 169.086 24.511C169.423 24.511 169.717 24.4426 169.968 24.3059C170.223 24.1646 170.424 23.9937 170.569 23.7932C170.715 23.5881 170.793 23.3944 170.802 23.2122L171.335 23.9436C171.28 24.1305 171.187 24.331 171.055 24.5452C170.923 24.7594 170.749 24.9644 170.535 25.1604C170.326 25.3518 170.073 25.509 169.776 25.6321C169.485 25.7551 169.147 25.8167 168.765 25.8167C168.282 25.8167 167.851 25.7209 167.473 25.5295C167.094 25.3336 166.798 25.0715 166.584 24.7434C166.37 24.4107 166.263 24.0347 166.263 23.6155C166.263 23.2236 166.336 22.8772 166.481 22.5764C166.632 22.2711 166.851 22.0159 167.138 21.8108C167.429 21.6057 167.785 21.4508 168.204 21.3459C168.623 21.2366 169.102 21.1819 169.64 21.1819H170.932ZM175.847 18.2834V25.6799H174.199V18.2834H175.847ZM180.673 18.2834L177.344 22.7336H175.464L175.245 21.2434H176.619L178.615 18.2834H180.673ZM178.745 25.6799L176.517 22.4534L177.815 21.5168L180.912 25.6799H178.745ZM185.239 18.2834V25.6799H183.585V18.2834H185.239ZM187.666 18.2834V19.5823H181.199V18.2834H187.666ZM191.521 25.8167C190.975 25.8167 190.48 25.7278 190.038 25.55C189.601 25.3678 189.227 25.1148 188.917 24.7913C188.612 24.4677 188.377 24.0872 188.213 23.6497C188.049 23.2122 187.967 22.7405 187.967 22.2346V21.9612C187.967 21.3824 188.051 20.8583 188.22 20.3889C188.388 19.9195 188.623 19.5185 188.924 19.1858C189.225 18.8486 189.58 18.5911 189.99 18.4133C190.4 18.2356 190.845 18.1467 191.323 18.1467C191.852 18.1467 192.314 18.2356 192.711 18.4133C193.107 18.5911 193.436 18.8417 193.695 19.1653C193.96 19.4843 194.156 19.8648 194.283 20.3069C194.415 20.7489 194.481 21.2366 194.481 21.7698V22.4739H188.767V21.2913H192.854V21.1614C192.845 20.8652 192.786 20.5872 192.677 20.3274C192.572 20.0676 192.41 19.858 192.191 19.6985C191.973 19.539 191.681 19.4592 191.316 19.4592C191.043 19.4592 190.799 19.5185 190.585 19.637C190.375 19.7509 190.2 19.9172 190.059 20.136C189.917 20.3547 189.808 20.6191 189.73 20.929C189.658 21.2343 189.621 21.5784 189.621 21.9612V22.2346C189.621 22.5582 189.664 22.859 189.751 23.137C189.842 23.4104 189.974 23.6497 190.147 23.8547C190.321 24.0598 190.53 24.2216 190.776 24.3401C191.022 24.454 191.303 24.511 191.617 24.511C192.014 24.511 192.367 24.4312 192.677 24.2717C192.987 24.1122 193.256 23.8866 193.483 23.595L194.352 24.4358C194.192 24.6682 193.985 24.8915 193.729 25.1057C193.474 25.3153 193.162 25.4862 192.793 25.6184C192.428 25.7506 192.005 25.8167 191.521 25.8167Z" fill="white"/>
</g>
<defs>
<clipPath id="clip0_52730_23915">
<rect y="0.679932" width="219" height="40" rx="20" fill="white"/>
</clipPath>
<clipPath id="clip1_52730_23915">
<rect width="18" height="18" fill="white" transform="translate(16 11.6799)"/>
</clipPath>
</defs>
</svg>
