<svg width="20" height="20" viewBox="0 0 20 20" fill="none" xmlns="http://www.w3.org/2000/svg">
<path fill-rule="evenodd" clip-rule="evenodd" d="M13.8498 0.500648C14.4808 0.500648 15.1108 0.589648 15.7098 0.790648C19.4008 1.99065 20.7308 6.04065 19.6198 9.58065C18.9898 11.3896 17.9598 13.0406 16.6108 14.3896C14.6798 16.2596 12.5608 17.9196 10.2798 19.3496L10.0298 19.5006L9.76977 19.3396C7.48077 17.9196 5.34977 16.2596 3.40077 14.3796C2.06077 13.0306 1.02977 11.3896 0.389772 9.58065C-0.740228 6.04065 0.589773 1.99065 4.32077 0.769648C4.61077 0.669648 4.90977 0.599648 5.20977 0.560648H5.32977C5.61077 0.519648 5.88977 0.500648 6.16977 0.500648H6.27977C6.90977 0.519648 7.51977 0.629648 8.11077 0.830648H8.16977C8.20977 0.849648 8.23977 0.870648 8.25977 0.889648C8.48077 0.960648 8.68977 1.04065 8.88977 1.15065L9.26977 1.32065C9.36159 1.36962 9.46466 1.44445 9.55373 1.50912C9.61017 1.55009 9.66099 1.58699 9.69977 1.61065C9.71609 1.62028 9.73268 1.62996 9.7494 1.63972C9.83514 1.68977 9.92446 1.74191 9.99977 1.79965C11.1108 0.950648 12.4598 0.490648 13.8498 0.500648ZM16.5098 7.70065C16.9198 7.68965 17.2698 7.36065 17.2998 6.93965V6.82065C17.3298 5.41965 16.4808 4.15065 15.1898 3.66065C14.7798 3.51965 14.3298 3.74065 14.1798 4.16065C14.0398 4.58065 14.2598 5.04065 14.6798 5.18965C15.3208 5.42965 15.7498 6.06065 15.7498 6.75965V6.79065C15.7308 7.01965 15.7998 7.24065 15.9398 7.41065C16.0798 7.58065 16.2898 7.67965 16.5098 7.70065Z" fill="white"/>
</svg>
