<svg width="20" height="20" viewBox="0 0 20 20" fill="none" xmlns="http://www.w3.org/2000/svg">
<path fill-rule="evenodd" clip-rule="evenodd" d="M13.8498 0.500709C14.4808 0.500709 15.1108 0.589709 15.7098 0.790709C19.4008 1.99071 20.7308 6.04071 19.6198 9.58071C18.9898 11.3897 17.9598 13.0407 16.6108 14.3897C14.6798 16.2597 12.5608 17.9197 10.2798 19.3497L10.0298 19.5007L9.76977 19.3397C7.48077 17.9197 5.34977 16.2597 3.40077 14.3797C2.06077 13.0307 1.02977 11.3897 0.389772 9.58071C-0.740228 6.04071 0.589773 1.99071 4.32077 0.769709C4.61077 0.669709 4.90977 0.599709 5.20977 0.560709H5.32977C5.61077 0.519709 5.88977 0.500709 6.16977 0.500709H6.27977C6.90977 0.519709 7.51977 0.629709 8.11077 0.830709H8.16977C8.20977 0.849709 8.23977 0.870709 8.25977 0.889709C8.48077 0.960709 8.68977 1.04071 8.88977 1.15071L9.26977 1.32071C9.36159 1.36968 9.46466 1.44451 9.55373 1.50918C9.61017 1.55015 9.66099 1.58705 9.69977 1.61071C9.71609 1.62034 9.73268 1.63002 9.7494 1.63978C9.83514 1.68983 9.92446 1.74197 9.99977 1.79971C11.1108 0.950709 12.4598 0.490709 13.8498 0.500709ZM16.5098 7.70071C16.9198 7.68971 17.2698 7.36071 17.2998 6.93971V6.82071C17.3298 5.41971 16.4808 4.15071 15.1898 3.66071C14.7798 3.51971 14.3298 3.74071 14.1798 4.16071C14.0398 4.58071 14.2598 5.04071 14.6798 5.18971C15.3208 5.42971 15.7498 6.06071 15.7498 6.75971V6.79071C15.7308 7.01971 15.7998 7.24071 15.9398 7.41071C16.0798 7.58071 16.2898 7.67971 16.5098 7.70071Z" fill="#fa3e4e"/>
</svg>
