<svg width="147" height="24" viewBox="0 0 147 24" fill="none" xmlns="http://www.w3.org/2000/svg">
<path d="M13.6795 18.112C14.0848 18.624 14.2875 19.3813 14.2875 20.384C14.2875 21.3653 13.9035 22.1653 13.1355 22.784C12.3888 23.3813 11.3542 23.68 10.0315 23.68C9.26349 23.68 8.28215 23.5947 7.08749 23.424C4.74082 23.0613 3.22615 22.88 2.54349 22.88C1.88215 22.88 1.41282 22.9013 1.13549 22.944C0.858152 22.9653 0.495485 22.9973 0.0474854 23.04L3.91949 1.92H10.9275L7.72749 19.52C8.00482 19.5627 8.27149 19.584 8.52749 19.584H9.32749C11.1195 19.584 12.5702 19.0933 13.6795 18.112Z" fill="white"/>
<path d="M23.4045 23.68C18.7112 23.68 16.3645 21.472 16.3645 17.056C16.3645 13.92 17.2285 11.3387 18.9565 9.312C20.7912 7.15733 23.2978 6.08 26.4765 6.08C28.7805 6.08 30.5192 6.61333 31.6925 7.68C32.8658 8.74667 33.4525 10.4 33.4525 12.64C33.4525 16.0533 32.5352 18.752 30.7005 20.736C28.9085 22.6987 26.4765 23.68 23.4045 23.68ZM24.2365 9.76C23.9805 10.336 23.7458 11.0613 23.5325 11.936C23.3405 12.7893 23.1165 13.8987 22.8605 15.264C22.6045 16.6293 22.4765 18.1547 22.4765 19.84C22.4765 20.3947 22.5618 20.8533 22.7325 21.216C22.9245 21.5787 23.2658 21.76 23.7565 21.76C24.2472 21.76 24.6418 21.6427 24.9405 21.408C25.2605 21.1733 25.5378 20.7787 25.7725 20.224C26.1992 19.2427 26.5832 17.8453 26.9245 16.032C27.2658 14.1973 27.4472 12.8853 27.4685 12.096C27.5112 11.3067 27.5325 10.624 27.5325 10.048C27.5325 9.45067 27.4472 8.96 27.2765 8.576C27.1058 8.192 26.7752 8 26.2845 8C25.8152 8 25.4205 8.14933 25.1005 8.448C24.7805 8.74667 24.4925 9.184 24.2365 9.76Z" fill="white"/>
<path d="M47.6585 4.48C47.9572 3.968 48.1065 3.43467 48.1065 2.88C48.1065 1.89867 47.8078 1.408 47.2105 1.408C46.2932 1.408 45.6425 2.34667 45.2585 4.224L44.7785 6.72H47.6905L47.4985 8.16H44.4905L41.6105 23.04L35.1465 23.68L38.2185 8.16H35.9465L36.2345 6.72H38.4745L39.1465 4.192C39.5305 2.63467 40.5438 1.49333 42.1865 0.768C43.3812 0.256 44.9812 0 46.9865 0C48.9918 0 50.4425 0.256 51.3385 0.768C52.2345 1.28 52.6825 1.87733 52.6825 2.56C52.6825 3.24267 52.4158 3.79733 51.8825 4.224C51.3492 4.65067 50.7838 4.864 50.1865 4.864C49.0132 4.864 48.1705 4.736 47.6585 4.48Z" fill="white"/>
<path d="M47.9092 19.84C47.9092 19.264 48.0586 18.2507 48.3572 16.8L50.0532 8.16H48.1652L48.2932 7.2C50.8532 6.432 53.3706 5.10933 55.8452 3.232H57.3812L56.6132 6.72H59.1092L58.8212 8.16H56.3572L54.7252 16.8C54.4479 18.1227 54.3092 19.008 54.3092 19.456C54.3092 20.48 54.7572 21.0987 55.6532 21.312C55.4399 22.0373 54.9492 22.6133 54.1812 23.04C53.4132 23.4667 52.4852 23.68 51.3972 23.68C50.3092 23.68 49.4559 23.3387 48.8372 22.656C48.2186 21.9733 47.9092 21.0347 47.9092 19.84Z" fill="white"/>
<path d="M71.4717 1.696C76.6984 1.696 79.3117 3.54133 79.3117 7.232C79.3117 9.25867 78.6611 10.88 77.3597 12.096C76.0797 13.312 74.3197 13.92 72.0797 13.92C71.0344 13.92 70.1064 13.6213 69.2957 13.024C68.9117 12.768 68.5917 12.4693 68.3357 12.128C69.8931 12.128 71.0771 11.6587 71.8877 10.72C72.7197 9.76 73.1357 8.352 73.1357 6.496C73.1357 4.64 72.2184 3.712 70.3837 3.712H69.6157C69.4877 3.712 69.3704 3.72267 69.2637 3.744L65.5837 23.04H58.6397L62.5757 2.08C64.8584 1.86667 66.6611 1.74933 67.9837 1.728C69.3064 1.70667 70.4691 1.696 71.4717 1.696Z" fill="white"/>
<path d="M95.5557 19.488C95.5557 20.4267 96.0357 21.0347 96.9957 21.312C96.7611 22.1013 96.1851 22.7093 95.2677 23.136C94.4997 23.4987 93.6891 23.68 92.8357 23.68C92.0037 23.68 91.3637 23.5627 90.9157 23.328C90.4891 23.1147 90.1584 22.8267 89.9237 22.464C89.5397 21.9093 89.3477 21.1093 89.3477 20.064C89.3477 19.4453 89.5184 18.2827 89.8597 16.576L90.3077 14.144C90.6704 12.288 90.8517 11.0187 90.8517 10.336C90.8517 9.14133 90.5211 8.544 89.8597 8.544C89.0277 8.544 88.3451 9.152 87.8117 10.368C87.5984 10.8373 87.4171 11.424 87.2677 12.128L85.0917 23.04L78.6597 23.68L83.1717 0.639999L89.6037 0L89.3477 1.28C88.7504 4.56533 88.1957 6.76267 87.6837 7.872C88.8784 6.67733 90.5744 6.08 92.7717 6.08C95.0971 6.08 96.4731 6.848 96.8997 8.384C97.0491 8.87467 97.1237 9.33333 97.1237 9.76C97.1237 10.1867 97.1024 10.5707 97.0597 10.912C97.0384 11.232 96.9744 11.6907 96.8677 12.288L96.4517 14.592L95.7157 18.208C95.6091 18.6987 95.5557 19.1253 95.5557 19.488Z" fill="white"/>
<path d="M106.561 23.68C101.867 23.68 99.5207 21.472 99.5207 17.056C99.5207 13.92 100.385 11.3387 102.113 9.312C103.947 7.15733 106.454 6.08 109.633 6.08C111.937 6.08 113.675 6.61333 114.849 7.68C116.022 8.74667 116.609 10.4 116.609 12.64C116.609 16.0533 115.691 18.752 113.857 20.736C112.065 22.6987 109.633 23.68 106.561 23.68ZM107.393 9.76C107.137 10.336 106.902 11.0613 106.689 11.936C106.497 12.7893 106.273 13.8987 106.017 15.264C105.761 16.6293 105.633 18.1547 105.633 19.84C105.633 20.3947 105.718 20.8533 105.889 21.216C106.081 21.5787 106.422 21.76 106.913 21.76C107.403 21.76 107.798 21.6427 108.097 21.408C108.417 21.1733 108.694 20.7787 108.929 20.224C109.355 19.2427 109.739 17.8453 110.081 16.032C110.422 14.1973 110.603 12.8853 110.625 12.096C110.667 11.3067 110.689 10.624 110.689 10.048C110.689 9.45067 110.603 8.96 110.433 8.576C110.262 8.192 109.931 8 109.441 8C108.971 8 108.577 8.14933 108.257 8.448C107.937 8.74667 107.649 9.184 107.393 9.76Z" fill="white"/>
<path d="M119.003 19.84C119.003 19.264 119.152 18.2507 119.451 16.8L121.147 8.16H119.259L119.387 7.2C121.947 6.432 124.464 5.10933 126.939 3.232H128.475L127.707 6.72H130.203L129.915 8.16H127.451L125.819 16.8C125.542 18.1227 125.403 19.008 125.403 19.456C125.403 20.48 125.851 21.0987 126.747 21.312C126.534 22.0373 126.043 22.6133 125.275 23.04C124.507 23.4667 123.579 23.68 122.491 23.68C121.403 23.68 120.55 23.3387 119.931 22.656C119.312 21.9733 119.003 21.0347 119.003 19.84Z" fill="white"/>
<path d="M136.904 23.68C132.211 23.68 129.864 21.472 129.864 17.056C129.864 13.92 130.728 11.3387 132.456 9.312C134.291 7.15733 136.798 6.08 139.976 6.08C142.28 6.08 144.019 6.61333 145.192 7.68C146.366 8.74667 146.952 10.4 146.952 12.64C146.952 16.0533 146.035 18.752 144.2 20.736C142.408 22.6987 139.976 23.68 136.904 23.68ZM137.736 9.76C137.48 10.336 137.246 11.0613 137.032 11.936C136.84 12.7893 136.616 13.8987 136.36 15.264C136.104 16.6293 135.976 18.1547 135.976 19.84C135.976 20.3947 136.062 20.8533 136.232 21.216C136.424 21.5787 136.766 21.76 137.256 21.76C137.747 21.76 138.142 21.6427 138.44 21.408C138.76 21.1733 139.038 20.7787 139.272 20.224C139.699 19.2427 140.083 17.8453 140.424 16.032C140.766 14.1973 140.947 12.8853 140.968 12.096C141.011 11.3067 141.032 10.624 141.032 10.048C141.032 9.45067 140.947 8.96 140.776 8.576C140.606 8.192 140.275 8 139.784 8C139.315 8 138.92 8.14933 138.6 8.448C138.28 8.74667 137.992 9.184 137.736 9.76Z" fill="white"/>
</svg>
