<svg width="40" height="40" viewBox="0 0 40 40" fill="none" xmlns="http://www.w3.org/2000/svg">
<path d="M33.9998 20.0742C34.0137 18.9987 33.4312 18.0102 32.4853 17.4914L10.4422 5.37824C9.45485 4.82014 8.29098 4.8887 7.36064 5.5241C6.41323 6.17019 5.9283 7.70823 6.19315 8.81909L8.25097 17.442C8.46222 18.3262 9.25345 18.9488 10.1637 18.945L22.4307 18.9069C23.0589 18.8943 23.5683 19.4038 23.5557 20.0321C23.5538 20.6497 23.0519 21.1517 22.4237 21.1643L10.1451 21.1929C9.23478 21.1946 8.43968 21.82 8.22294 22.7055L6.09234 31.3628C5.83366 32.3858 6.12859 33.4071 6.85031 34.129C6.93522 34.2139 7.03074 34.3094 7.12632 34.3837C8.06097 35.1049 9.28503 35.1969 10.3301 34.6399L32.448 22.6453C33.3971 22.1419 33.9858 21.1498 33.9998 20.0742Z" fill="#3E8CFA"/>
</svg>
